<?xml version="1.0" encoding="UTF-8" standalone="no"?>
<!-- Created with Inkscape (http://www.inkscape.org/) -->

<svg
   width="1024"
   height="512"
   viewBox="0 0 1024 512"
   version="1.1"
   id="svg1"
   inkscape:version="1.4.2 (f4327f4, 2025-05-13)"
   sodipodi:docname="logo_full_background.svg"
   inkscape:export-filename="logo_3.png"
   inkscape:export-xdpi="96"
   inkscape:export-ydpi="96"
   xml:space="preserve"
   xmlns:inkscape="http://www.inkscape.org/namespaces/inkscape"
   xmlns:sodipodi="http://sodipodi.sourceforge.net/DTD/sodipodi-0.dtd"
   xmlns:xlink="http://www.w3.org/1999/xlink"
   xmlns="http://www.w3.org/2000/svg"
   xmlns:svg="http://www.w3.org/2000/svg"><sodipodi:namedview
     id="namedview1"
     pagecolor="#505050"
     bordercolor="#ffffff"
     borderopacity="1"
     inkscape:showpageshadow="0"
     inkscape:pageopacity="0"
     inkscape:pagecheckerboard="1"
     inkscape:deskcolor="#505050"
     inkscape:document-units="px"
     inkscape:zoom="1"
     inkscape:cx="522.5"
     inkscape:cy="325.5"
     inkscape:window-width="2560"
     inkscape:window-height="1351"
     inkscape:window-x="2391"
     inkscape:window-y="-9"
     inkscape:window-maximized="1"
     inkscape:current-layer="layer1"
     showgrid="true"
     showguides="false"><inkscape:grid
       id="grid1"
       units="px"
       originx="0"
       originy="0"
       spacingx="1"
       spacingy="1"
       empcolor="#0099e5"
       empopacity="0.30196078"
       color="#0099e5"
       opacity="0.14901961"
       empspacing="5"
       dotted="false"
       gridanglex="30"
       gridanglez="30"
       visible="true" /></sodipodi:namedview><defs
     id="defs1"><linearGradient
       id="linearGradient10"
       inkscape:collect="always"><stop
         style="stop-color:#000000;stop-opacity:1;"
         offset="0.85500574"
         id="stop10" /><stop
         style="stop-color:#000000;stop-opacity:0;"
         offset="1"
         id="stop11" /></linearGradient><rect
       x="386.5"
       y="-239.99999"
       width="260.396"
       height="122.38801"
       id="rect11" /><linearGradient
       id="linearGradient8"
       inkscape:collect="always"><stop
         style="stop-color:#dc0000;stop-opacity:1;"
         offset="0"
         id="stop8" /><stop
         style="stop-color:#a80000;stop-opacity:1;"
         offset="1"
         id="stop9" /></linearGradient><linearGradient
       id="linearGradient6"
       inkscape:collect="always"><stop
         style="stop-color:#a80000;stop-opacity:1;"
         offset="0"
         id="stop6" /><stop
         style="stop-color:#dc0000;stop-opacity:1;"
         offset="1"
         id="stop7" /></linearGradient><linearGradient
       id="linearGradient4"
       inkscape:collect="always"><stop
         style="stop-color:#dc0000;stop-opacity:1;"
         offset="0"
         id="stop4" /><stop
         style="stop-color:#a80000;stop-opacity:1;"
         offset="1"
         id="stop5" /></linearGradient><linearGradient
       id="linearGradient1"
       inkscape:collect="always"><stop
         style="stop-color:#a70000;stop-opacity:1;"
         offset="0"
         id="stop1" /><stop
         style="stop-color:#dc0000;stop-opacity:1;"
         offset="1"
         id="stop2" /></linearGradient><linearGradient
       inkscape:collect="always"
       xlink:href="#linearGradient1"
       id="linearGradient2"
       x1="265"
       y1="192.10001"
       x2="479.20001"
       y2="192.10001"
       gradientUnits="userSpaceOnUse"
       gradientTransform="translate(73.03125,-49.281243)" /><linearGradient
       inkscape:collect="always"
       xlink:href="#linearGradient4"
       id="linearGradient5"
       x1="44.5"
       y1="321.25"
       x2="256"
       y2="321.25"
       gradientUnits="userSpaceOnUse"
       gradientTransform="translate(73.03125,-49.281243)" /><linearGradient
       inkscape:collect="always"
       xlink:href="#linearGradient6"
       id="linearGradient7"
       x1="320.35001"
       y1="250.825"
       x2="481"
       y2="250.825"
       gradientUnits="userSpaceOnUse"
       gradientTransform="translate(73.03125,-49.281243)" /><linearGradient
       inkscape:collect="always"
       xlink:href="#linearGradient8"
       id="linearGradient9"
       x1="154.97501"
       y1="347.6875"
       x2="313.60001"
       y2="347.6875"
       gradientUnits="userSpaceOnUse"
       gradientTransform="translate(73.03125,-49.281243)" /><rect
       x="386.5"
       y="-239.99999"
       width="657.396"
       height="226.45312"
       id="rect12" /><radialGradient
       inkscape:collect="always"
       xlink:href="#linearGradient10"
       id="radialGradient11"
       cx="511.05842"
       cy="305.96062"
       fx="511.05842"
       fy="305.96062"
       r="512.49962"
       gradientTransform="matrix(1,0,0,0.50062233,3.75,103.50868)"
       gradientUnits="userSpaceOnUse" /></defs><g
     inkscape:label="Layer 1"
     inkscape:groupmode="layer"
     id="layer1"><path
       style="fill:url(#radialGradient11);fill-opacity:1;stroke:none;stroke-linecap:round;stroke-linejoin:round;paint-order:markers stroke fill"
       id="path6"
       sodipodi:type="arc"
       sodipodi:cx="514.80847"
       sodipodi:cy="256.67957"
       sodipodi:rx="512"
       sodipodi:ry="256"
       sodipodi:start="5.9819273"
       sodipodi:end="5.9724341"
       sodipodi:open="true"
       sodipodi:arc-type="arc"
       d="M 1003.75,180.71879 A 512,256 0 0 1 667.89001,500.96937 512,256 0 0 1 26.593537,333.79989 512,256 0 0 1 359.40958,12.755815 512,256 0 0 1 1002.2858,178.40143" /><path
       style="fill:url(#linearGradient2);fill-opacity:1;stroke:none;stroke-width:1.8;stroke-linecap:round;stroke-dasharray:none;stroke-opacity:1;paint-order:markers stroke fill"
       d="m 338.03125,157.21875 121.5,-121.499993 h 92.7 l -214.2,214.199993 z"
       id="path2"
       sodipodi:nodetypes="ccccc" /><path
       style="fill:url(#linearGradient5);fill-opacity:1;stroke:none;stroke-width:1.8;stroke-linecap:round;stroke-dasharray:none;stroke-opacity:1;paint-order:markers stroke fill"
       d="m 329.03125,258.91875 -118.8,118.8 h -92.7 l 211.5,-211.5 z"
       id="path3"
       sodipodi:nodetypes="ccccc" /><path
       style="fill:url(#linearGradient7);fill-opacity:1;stroke:none;stroke-width:1.35;stroke-linecap:round;stroke-dasharray:none;stroke-opacity:1;paint-order:markers stroke fill"
       d="m 393.38125,212.34375 91.125,-91.125 h 69.525 l -160.65,160.65 z"
       id="path2-1"
       sodipodi:nodetypes="ccccc" /><path
       style="fill:url(#linearGradient9);fill-opacity:1;stroke:none;stroke-width:1.35;stroke-linecap:round;stroke-dasharray:none;stroke-opacity:1;paint-order:markers stroke fill"
       d="m 386.63125,288.61875 -89.1,89.1 h -69.525 l 158.625,-158.625 z"
       id="path3-5"
       sodipodi:nodetypes="ccccc" /><path
       style="fill:#ffffff;fill-opacity:1;stroke:none;stroke-width:1.8;stroke-linecap:round;stroke-dasharray:none;stroke-opacity:1;paint-order:markers stroke fill"
       d="m 459.53125,35.718757 h -13.5 l -108,107.999993 v 13.5 l 121.5,-121.499992"
       id="path4"
       sodipodi:nodetypes="ccccc" /><path
       style="fill:#ffffff;fill-opacity:1;stroke:none;stroke-width:1.8;stroke-linecap:round;stroke-dasharray:none;stroke-opacity:1;paint-order:markers stroke fill"
       d="m 329.03125,166.21875 v -13.5 l -225,225 h 13.5 z"
       id="path5"
       sodipodi:nodetypes="ccccc" /><path
       style="font-weight:bold;font-size:96px;font-family:Bahnschrift;-inkscape-font-specification:'Bahnschrift Bold';white-space:pre;fill:#ffffff;stroke-width:2;stroke-linecap:round;paint-order:markers stroke fill"
       d="m 393.67187,210.71875 q -4.875,0 -9.5625,-0.98437 -4.64062,-0.98438 -8.71875,-2.85938 -4.07812,-1.92187 -7.35937,-4.59375 v 0 l 5.95312,-10.59375 v 0 q 3.9375,3.23438 9.09375,5.01563 5.15625,1.73437 10.59375,1.73437 6.28125,0 9.75,-2.10937 3.46875,-2.15625 3.46875,-6.04688 v -0.0469 q 0,-2.95312 -1.73437,-4.5 -1.73438,-1.59375 -4.59375,-2.34375 -2.8125,-0.75 -6.14063,-1.26562 -3.98437,-0.60938 -8.0625,-1.5 -4.07812,-0.9375 -7.5,-2.90625 -3.42187,-2.01563 -5.53125,-5.71875 -2.0625,-3.70313 -2.0625,-9.89063 v -0.0469 q 0,-9.98438 6.5625,-15.42188 6.5625,-5.48437 18.5625,-5.48437 5.53125,0 11.25,1.875 5.71875,1.82812 10.64063,5.25 v 0 l -5.4375,10.875 v 0 q -3.9375,-2.76563 -8.25,-4.21875 -4.26563,-1.5 -8.20313,-1.5 -5.90625,0 -9.14062,1.96875 -3.23438,1.92187 -3.23438,5.4375 v 0.0469 q 0,3.28125 1.92188,4.96875 1.92187,1.6875 5.01562,2.53125 3.09375,0.79688 6.65625,1.5 3.9375,0.75 7.82813,1.875 3.89062,1.07813 7.125,3.14063 3.23437,2.0625 5.15625,5.67187 1.92187,3.60938 1.92187,9.375 v 0.0937 q 0,9.84375 -6.79687,15.28125 -6.79688,5.39062 -19.17188,5.39062 z m 49.59375,-68.85937 v 52.07812 q 0,1.73438 0.98438,2.71875 1.03125,0.98438 2.90625,0.98438 h 2.15625 v 12.375 H 442.75 q -5.85938,0 -9.09375,-3.375 -3.23438,-3.375 -3.23438,-9.51563 v -55.26562 z m 14.25,12.84375 v -12.84375 h 12.84375 v 12.84375 z m 0,55.3125 v -48.65625 h 12.84375 v 48.65625 z m 45.375,0.70312 q -10.45312,0 -16.21875,-5.90625 -5.76562,-5.90625 -5.76562,-16.64062 v -5.20313 q 0,-10.64062 5.76562,-16.45312 5.76563,-5.85938 16.21875,-5.85938 6,0 10.82813,2.01563 4.875,2.01562 7.73437,5.76562 v 0 l -8.29687,8.0625 v 0 q -1.73438,-1.64062 -4.17188,-2.53125 -2.39062,-0.9375 -5.01562,-0.9375 -4.875,0 -7.54688,2.625 -2.67187,2.57813 -2.67187,7.3125 v 5.20313 q 0,4.875 2.67187,7.54687 2.67188,2.625 7.54688,2.625 2.625,0 5.01562,-0.98437 2.4375,-0.98438 4.17188,-2.8125 v 0 l 8.29687,8.53125 v 0 q -2.85937,3.65625 -7.73437,5.67187 -4.82813,1.96875 -10.82813,1.96875 z m 48.09375,0 q -10.59375,0 -16.45312,-5.67187 -5.8125,-5.71875 -5.8125,-16.125 v -5.48438 q 0,-10.875 5.57812,-16.82812 5.625,-5.95313 15.84375,-5.95313 9.65625,0 14.90625,7.125 5.29688,7.07813 5.29688,19.96875 v 3.1875 H 537.0625 v -8.67187 h 21.5625 l -0.14063,-1.125 q -0.51562,-4.17188 -2.625,-6.46875 -2.10937,-2.34375 -5.71875,-2.34375 -4.64062,0 -7.21875,2.76562 -2.53125,2.76563 -2.53125,7.82813 v 6.1875 q 0,4.96875 2.76563,7.6875 2.8125,2.71875 7.82812,2.71875 2.57813,0 5.10938,-0.89063 2.53125,-0.9375 4.59375,-2.625 v 0 l 8.39062,7.45313 v 0 q -3.79687,3.46875 -8.53125,5.39062 -4.73437,1.875 -9.5625,1.875 z m 30.60938,-0.70312 V 161.35938 H 595.375 v 48.65625 z m 27.375,-35.10938 q -0.89063,-0.9375 -2.29688,-1.40625 -1.35937,-0.46875 -3.14062,-0.46875 -3.89063,0 -6.04688,2.53125 -2.10937,2.48438 -2.10937,6.9375 l -0.98438,-12.65625 q 2.01563,-4.3125 5.20313,-6.75 3.23437,-2.4375 7.07812,-2.4375 3.04688,0 5.48438,0.98438 2.48437,0.9375 4.3125,2.8125 z"
       id="text11"
       aria-label="Slicer" /><path
       style="font-weight:bold;font-size:192px;font-family:Bahnschrift;-inkscape-font-specification:'Bahnschrift Bold';white-space:pre;fill:#ffffff;stroke-width:2;stroke-linecap:round;paint-order:markers stroke fill"
       d="m 349.3125,377.71875 q -9.75,0 -19.125,-1.96875 -9.28125,-1.96875 -17.4375,-5.71875 -8.15625,-3.84375 -14.71875,-9.1875 v 0 l 11.90625,-21.1875 v 0 q 7.875,6.46875 18.1875,10.03125 10.3125,3.46875 21.1875,3.46875 12.5625,0 19.5,-4.21875 6.9375,-4.3125 6.9375,-12.09375 v -0.0937 q 0,-5.90625 -3.46875,-9 -3.46875,-3.1875 -9.1875,-4.6875 -5.625,-1.5 -12.28125,-2.53125 -7.96875,-1.21875 -16.125,-3 -8.15625,-1.875 -15,-5.8125 -6.84375,-4.03125 -11.0625,-11.4375 -4.125,-7.40625 -4.125,-19.78125 v -0.0937 q 0,-19.96875 13.125,-30.84375 13.125,-10.96875 37.125,-10.96875 11.0625,0 22.5,3.75 11.4375,3.65625 21.28125,10.5 v 0 l -10.875,21.75 v 0 q -7.875,-5.53125 -16.5,-8.4375 -8.53125,-3 -16.40625,-3 -11.8125,0 -18.28125,3.9375 Q 330,270.9376 330,277.96885 v 0.0937 q 0,6.5625 3.84375,9.9375 3.84375,3.375 10.03125,5.0625 6.1875,1.59375 13.3125,3 7.875,1.5 15.65625,3.75 7.78125,2.15625 14.25,6.28125 6.46875,4.125 10.3125,11.34375 3.84375,7.21875 3.84375,18.75 v 0.1875 q 0,19.6875 -13.59375,30.5625 Q 374.0625,377.7188 349.3125,377.7188 Z M 450,376.78125 q -13.03125,0 -18.84375,-6.65625 -5.8125,-6.65625 -5.8125,-19.125 V 250.6875 h 25.6875 v 93.9375 q 0,3.46875 1.40625,5.4375 1.40625,1.96875 4.125,1.96875 h 6.375 v 24.75 z M 415.3125,300.9375 V 279 h 47.625 v 21.9375 z m 126,75.375 V 279 h 25.59375 v 97.3125 z M 511.125,279 v 59.15625 q 0,7.03125 3.9375,10.96875 4.03125,3.84375 11.25,3.84375 7.21875,0 11.0625,-3.9375 3.9375,-4.03125 3.9375,-11.4375 l 1.3125,21.28125 q -2.4375,7.21875 -8.625,13.03125 -6.09375,5.8125 -15.84375,5.8125 -15.65625,0 -24.1875,-10.125 -8.53125,-10.125 -8.53125,-28.5 V 279 Z m 133.59375,97.3125 V 240 h 25.6875 v 136.3125 z m -22.59375,1.40625 q -15.5625,0 -24.1875,-10.96875 -8.53125,-11.0625 -8.53125,-31.125 v -15.5625 q 0,-20.25 8.53125,-31.3125 8.625,-11.15625 24.1875,-11.15625 7.78125,0 14.15625,4.6875 6.46875,4.59375 10.40625,13.125 l -1.96875,21.5625 q 0,-4.96875 -1.6875,-8.4375 -1.6875,-3.46875 -4.96875,-5.25 -3.1875,-1.875 -7.78125,-1.875 -7.21875,0 -11.25,4.96875 -3.9375,4.875 -3.9375,13.78125 V 335.625 q 0,8.71875 3.9375,13.5 4.03125,4.78125 11.25,4.78125 4.59375,0 7.78125,-1.78125 3.28125,-1.78125 4.96875,-5.15625 1.6875,-3.375 1.6875,-8.15625 l 1.3125,22.21875 q -2.90625,7.96875 -9.1875,12.375 -6.1875,4.3125 -14.71875,4.3125 z M 694.3125,265.6875 V 240 H 720 v 25.6875 z m 0,110.625 V 279 H 720 v 97.3125 z m 88.78125,1.40625 q -20.0625,0 -31.03125,-11.0625 Q 741.09375,355.5 741.09375,335.34375 V 319.5 q 0,-19.96875 10.96875,-30.9375 10.96875,-10.96875 31.03125,-10.96875 20.0625,0 31.03125,10.96875 10.96875,10.96875 10.96875,30.9375 v 16.125 q 0,20.0625 -10.96875,31.125 -10.96875,10.96875 -31.03125,10.96875 z m -0.0937,-24.75 q 7.78125,0 12.09375,-4.5 4.31245,-4.59375 4.31245,-12.84375 V 319.5 q 0,-8.15625 -4.3125,-12.65625 -4.3125,-4.5 -12.09375,-4.5 -7.6875,0 -12,4.5 -4.21875,4.5 -4.21875,12.65625 v 16.125 q 0,8.25 4.21875,12.84375 4.3125,4.5 12,4.5 z m 102.75,24.75 q -13.125,0 -25.03125,-3.46875 -11.8125,-3.5625 -20.15625,-9.84375 v 0 l 15.8437,-19.78125 v 0 q 7.03125,4.5 14.71875,6.9375 7.6875,2.4375 14.625,2.4375 9,0 13.96875,-1.96875 4.96875,-2.0625 4.96875,-5.625 0,-4.3125 -3.46875,-5.90625 -3.375,-1.59375 -8.90625,-2.0625 -5.53125,-0.5625 -11.71875,-1.40625 -6.28125,-0.84375 -12.46875,-1.96875 -6.09375,-1.21875 -11.15625,-3.84375 -5.0625,-2.71875 -8.0625,-8.0625 -3,-5.4375 -3,-14.71875 0,-14.71875 10.40625,-22.78125 10.40625,-8.0625 29.4375,-8.0625 11.15625,0 21.93745,3.28125 10.875,3.28125 19.4063,9.28125 v 0 l -15.2813,18.65625 v 0 q -6.375,-3.5625 -13.31245,-5.53125 -6.9375,-1.96875 -13.3125,-1.96875 -7.78125,0 -12.09375,1.78125 -4.3125,1.6875 -4.3125,4.96875 0,2.8125 3,4.21875 3,1.40625 7.875,2.0625 4.875,0.5625 10.5,1.21875 6.46875,0.75 13.03125,1.875 6.56245,1.03125 11.99995,3.84375 5.5313,2.8125 8.9063,8.53125 3.375,5.71875 3.375,15.75 0,15.28125 -10.9688,23.71875 -10.875,8.4375 -30.74995,8.4375 z"
       id="text12"
       aria-label="Studios" /></g></svg>
